<svg width="100" height="150" viewBox="0 0 100 150" fill="none" xmlns="http://www.w3.org/2000/svg">
<g id="body">
<path id="body_2" d="M21.71 146V23.59C21.7258 18.3993 23.7948 13.4257 27.4653 9.75526C31.1357 6.08485 36.1093 4.01583 41.3 4H57.62C62.8107 4.01583 67.7843 6.08485 71.4547 9.75526C75.1252 13.4257 77.1942 18.3993 77.21 23.59V146" fill="#FFE7B6"/>
<path id="fire" d="M61.18 50.07C66.0512 50.07 70 46.1211 70 41.25C70 36.3788 66.0512 32.43 61.18 32.43C56.3088 32.43 52.36 36.3788 52.36 41.25C52.36 46.1211 56.3088 50.07 61.18 50.07Z" fill="white"/>
<path id="tre" d="M38.29 51.06C44.6578 51.06 49.82 45.8978 49.82 39.53C49.82 33.1622 44.6578 28 38.29 28C31.9222 28 26.76 33.1622 26.76 39.53C26.76 45.8978 31.9222 51.06 38.29 51.06Z" fill="white"/>
<path id="to" d="M42.4 44.8C45.1062 44.8 47.3 42.6062 47.3 39.9C47.3 37.1938 45.1062 35 42.4 35C39.6938 35 37.5 37.1938 37.5 39.9C37.5 42.6062 39.6938 44.8 42.4 44.8Z" fill="black"/>
<path id="et" d="M57.94 44.81C59.63 44.81 61 43.44 61 41.75C61 40.06 59.63 38.69 57.94 38.69C56.25 38.69 54.88 40.06 54.88 41.75C54.88 43.44 56.25 44.81 57.94 44.81Z" fill="black"/>
</g>
</svg>
